<svg width="21" height="21" viewBox="0 0 21 21" fill="none" xmlns="http://www.w3.org/2000/svg">
<path d="M15.5 1.63623C16.875 1.63623 18 2.75498 18 4.13623V15.3862C18 16.7612 16.8812 17.8862 15.5 17.8862H12.375C12.2092 17.8862 12.0503 17.8204 11.9331 17.7032C11.8158 17.586 11.75 17.427 11.75 17.2612C11.75 17.0955 11.8158 16.9365 11.9331 16.8193C12.0503 16.7021 12.2092 16.6362 12.375 16.6362H15.5C15.8315 16.6362 16.1495 16.5045 16.3839 16.2701C16.6183 16.0357 16.75 15.7178 16.75 15.3862V4.13623C16.75 3.80471 16.6183 3.48677 16.3839 3.25235C16.1495 3.01793 15.8315 2.88623 15.5 2.88623H12.375C12.2092 2.88623 12.0503 2.82038 11.9331 2.70317C11.8158 2.58596 11.75 2.42699 11.75 2.26123C11.75 2.09547 11.8158 1.9365 11.9331 1.81929C12.0503 1.70208 12.2092 1.63623 12.375 1.63623H15.5Z" fill="#424242"/>
<path d="M5.68739 5.57388C5.80526 5.46003 5.96314 5.39704 6.12701 5.39846C6.29088 5.39989 6.44764 5.46562 6.56352 5.5815C6.6794 5.69738 6.74513 5.85413 6.74656 6.01801C6.74798 6.18188 6.68498 6.33976 6.57114 6.45763L3.88364 9.14513H12.3711C12.5369 9.14513 12.6959 9.21098 12.8131 9.32819C12.9303 9.4454 12.9961 9.60437 12.9961 9.77013C12.9961 9.93589 12.9303 10.0949 12.8131 10.2121C12.6959 10.3293 12.5369 10.3951 12.3711 10.3951H3.88364L6.57114 13.0826C6.68498 13.2005 6.74798 13.3584 6.74656 13.5223C6.74513 13.6861 6.6794 13.8429 6.56352 13.9588C6.44764 14.0746 6.29088 14.1404 6.12701 14.1418C5.96314 14.1432 5.80526 14.0802 5.68739 13.9664L1.93739 10.2164C1.82022 10.0992 1.75439 9.94023 1.75439 9.77451C1.75439 9.60878 1.82022 9.44984 1.93739 9.33263L5.68739 5.58263V5.57388Z" fill="#424242"/>
</svg>
